# xmcd CD database file
#
# Track frame offsets:
#	150
#	11337
#	21502
#	32055
#	45460
#	53852
#	64595
#	77125
#	89650
#	99652
#	111467
#	120750
#	132207
#	145442
#	160430
#	173162
#	186977
#	198575
#	207657
#	217752
#	231157
#	244157
#	255397
#	266022
#
# Disc length: 3703 seconds
#
# Revision: 1
# Processed by: cddbd v1.5.2PL0 Copyright (c) Steve Scherf et al.
# Submitted via: CDex 1.70beta2
#
DISCID=5c0e7518
DTITLE=Little Jimmy Dickens - Out Behind The Barn Disc 3
DYEAR=2001
DGENRE=Country
TTITLE0=Running Into Memories Of You
TTITLE1=Sorrow's Tearing Down The House
TTITLE2=Police Police
TTITLE3=Another Bridge To Burn
TTITLE4=I Ain't Comin' Home Tonight
TTITLE5=I'll Sit This One Out
TTITLE6=Is Goodbye That Easy To Say
TTITLE7=I Leaned Over Backwards For You
TTITLE8=Too Many Irons In The Fire
TTITLE9=Watching The Fire Go Down
TTITLE10=He Stands Real Tall
TTITLE11=Stepping Stone
TTITLE12=She's Not Forgotten Yet
TTITLE13=Things Have Gone To Pieces
TTITLE14=Life Turned Her That Way
TTITLE15=Handle With Care
TTITLE16=I Can't Get Over Me
TTITLE17=He Knocked Me Right
TTITLE18=Collection Of Failures
TTITLE19=The Back Of My Hand
TTITLE20=Twice The Fool
TTITLE21=May The Bird Of Paradise Fly Up Your Nose
TTITLE22=Call Him Me
TTITLE23=My Eyes Are Jealous
EXTD=YEAR: 2001
EXTT0=
EXTT1=
EXTT2=
EXTT3=
EXTT4=
EXTT5=
EXTT6=
EXTT7=
EXTT8=
EXTT9=
EXTT10=
EXTT11=
EXTT12=
EXTT13=
EXTT14=
EXTT15=
EXTT16=
EXTT17=
EXTT18=
EXTT19=
EXTT20=
EXTT21=
EXTT22=
EXTT23=
PLAYORDER=
